# xmcd
#
# Track frame offsets: 
#        150
#        9633
#        18475
#        26575
#        36363
#        49325
#        59365
#        77880
#        94373
#        113655
#        127323
#        140305
#        153653
#        165053
#        179480
#        188878
#        202068
#        219918
#        233498
#        246245
#        254993
#        263475
#        272948
#
# Disc length: 3736 seconds
#
# Revision: 0
# Processed by: cddbd v1.5.2PL0 Copyright (c) Steve Scherf et al.
# Submitted via: ExactAudioCopy v0.95b3
#
DISCID=510e9617
DTITLE=Cigani Ivanovici - Djelem djelem
DYEAR=1900
DGENRE=Ethnic
TTITLE0=Gori, gori
TTITLE1=Hop, hop, hop
TTITLE2=Sosnica
TTITLE3=Risjo (Vrati se)
TTITLE4=Dema devla (Daj mi Boze)
TTITLE5=Karavano
TTITLE6=Cardas
TTITLE7=Dobar dan
TTITLE8=Dojna
TTITLE9=Dve gitare
TTITLE10=Djelem djelem
TTITLE11=Mar djandja
TTITLE12=Rucijok
TTITLE13=Ja ustretjil vas
TTITLE14=Nada Jela
TTITLE15=Amaro Kher-kolja, Aleko
TTITLE16=Kaljina maljina
TTITLE17=Glupo ja izdjelal
TTITLE18=Ljuba
TTITLE19=Zabagala giljori
TTITLE20=Lisce
TTITLE21=Dikhava drosune
TTITLE22=Zulik
EXTD=
EXTT0=
EXTT1=
EXTT2=
EXTT3=
EXTT4=
EXTT5=
EXTT6=
EXTT7=
EXTT8=
EXTT9=
EXTT10=
EXTT11=
EXTT12=
EXTT13=
EXTT14=
EXTT15=
EXTT16=
EXTT17=
EXTT18=
EXTT19=
EXTT20=
EXTT21=
EXTT22=
PLAYORDER=
